<mxfile host="65bd71144e">
    <diagram id="kOJ-MxovEovufVKgLp_z" name="Page-1">
        <mxGraphModel dx="1506" dy="406" grid="1" gridSize="10" guides="1" tooltips="1" connect="1" arrows="1" fold="1" page="1" pageScale="1" pageWidth="850" pageHeight="1100" math="0" shadow="0">
            <root>
                <mxCell id="0"/>
                <mxCell id="1" parent="0"/>
                <mxCell id="3" value="" style="endArrow=none;dashed=1;html=1;" parent="1" edge="1">
                    <mxGeometry width="50" height="50" relative="1" as="geometry">
                        <mxPoint x="540" y="280" as="sourcePoint"/>
                        <mxPoint x="320" y="280" as="targetPoint"/>
                    </mxGeometry>
                </mxCell>
                <mxCell id="4" value="fetch" style="text;html=1;strokeColor=none;fillColor=none;align=center;verticalAlign=middle;whiteSpace=wrap;rounded=0;" parent="1" vertex="1">
                    <mxGeometry x="230" y="160" width="60" height="30" as="geometry"/>
                </mxCell>
                <mxCell id="5" value="" style="endArrow=none;dashed=1;html=1;" parent="1" edge="1">
                    <mxGeometry width="50" height="50" relative="1" as="geometry">
                        <mxPoint x="1130" y="550" as="sourcePoint"/>
                        <mxPoint x="320" y="550" as="targetPoint"/>
                    </mxGeometry>
                </mxCell>
                <mxCell id="6" value="ex-1" style="text;html=1;strokeColor=none;fillColor=none;align=center;verticalAlign=middle;whiteSpace=wrap;rounded=0;" parent="1" vertex="1">
                    <mxGeometry x="230" y="480" width="60" height="30" as="geometry"/>
                </mxCell>
                <mxCell id="7" value="" style="endArrow=none;dashed=1;html=1;" parent="1" edge="1">
                    <mxGeometry width="50" height="50" relative="1" as="geometry">
                        <mxPoint x="1130" y="710" as="sourcePoint"/>
                        <mxPoint x="320" y="710" as="targetPoint"/>
                    </mxGeometry>
                </mxCell>
                <mxCell id="8" value="ex0" style="text;html=1;strokeColor=none;fillColor=none;align=center;verticalAlign=middle;whiteSpace=wrap;rounded=0;" parent="1" vertex="1">
                    <mxGeometry x="230" y="650" width="60" height="30" as="geometry"/>
                </mxCell>
                <mxCell id="9" value="RF Read" style="rounded=0;whiteSpace=wrap;html=1;" parent="1" vertex="1">
                    <mxGeometry x="450" y="320" width="80" height="50" as="geometry"/>
                </mxCell>
                <mxCell id="11" value="" style="endArrow=none;dashed=1;html=1;" parent="1" edge="1">
                    <mxGeometry width="50" height="50" relative="1" as="geometry">
                        <mxPoint x="540" y="800" as="sourcePoint"/>
                        <mxPoint x="320" y="800" as="targetPoint"/>
                    </mxGeometry>
                </mxCell>
                <mxCell id="12" value="ex1" style="text;html=1;strokeColor=none;fillColor=none;align=center;verticalAlign=middle;whiteSpace=wrap;rounded=0;" parent="1" vertex="1">
                    <mxGeometry x="230" y="745" width="60" height="30" as="geometry"/>
                </mxCell>
                <mxCell id="15" value="ALU" style="rounded=0;whiteSpace=wrap;html=1;" parent="1" vertex="1">
                    <mxGeometry x="350" y="640" width="80" height="50" as="geometry"/>
                </mxCell>
                <mxCell id="23" value="WriteBack" style="rounded=0;whiteSpace=wrap;html=1;" parent="1" vertex="1">
                    <mxGeometry x="350" y="810" width="80" height="50" as="geometry"/>
                </mxCell>
                <mxCell id="24" value="&lt;div&gt;LsuCachelessPlugin&lt;/div&gt;Memory&lt;div&gt;Load&lt;/div&gt;&lt;div&gt;Store&lt;/div&gt;" style="rounded=0;whiteSpace=wrap;html=1;" parent="1" vertex="1">
                    <mxGeometry x="490" y="640" width="120" height="150" as="geometry"/>
                </mxCell>
                <mxCell id="25" value="Dispatch&lt;br&gt;Hazard detection" style="rounded=0;whiteSpace=wrap;html=1;" parent="1" vertex="1">
                    <mxGeometry x="330" y="330" width="100" height="40" as="geometry"/>
                </mxCell>
                <mxCell id="26" value="ex2" style="text;html=1;strokeColor=none;fillColor=none;align=center;verticalAlign=middle;whiteSpace=wrap;rounded=0;" parent="1" vertex="1">
                    <mxGeometry x="230" y="820" width="60" height="30" as="geometry"/>
                </mxCell>
                <mxCell id="30" value="Pulse" style="rounded=0;whiteSpace=wrap;html=1;" parent="1" vertex="1">
                    <mxGeometry x="780" y="640" width="100" height="50" as="geometry"/>
                </mxCell>
                <mxCell id="33" value="Branch" style="rounded=0;whiteSpace=wrap;html=1;" parent="1" vertex="1">
                    <mxGeometry x="670" y="640" width="80" height="140" as="geometry"/>
                </mxCell>
                <mxCell id="Nnzz66zd7dhe3EpLPmQt-33" value="" style="endArrow=none;dashed=1;html=1;" parent="1" edge="1">
                    <mxGeometry width="50" height="50" relative="1" as="geometry">
                        <mxPoint x="540" y="200" as="sourcePoint"/>
                        <mxPoint x="320" y="200" as="targetPoint"/>
                    </mxGeometry>
                </mxCell>
                <mxCell id="Nnzz66zd7dhe3EpLPmQt-34" value="decode" style="text;html=1;strokeColor=none;fillColor=none;align=center;verticalAlign=middle;whiteSpace=wrap;rounded=0;" parent="1" vertex="1">
                    <mxGeometry x="230" y="230" width="60" height="30" as="geometry"/>
                </mxCell>
                <mxCell id="Nnzz66zd7dhe3EpLPmQt-36" value="Readout" style="rounded=0;whiteSpace=wrap;html=1;" parent="1" vertex="1">
                    <mxGeometry x="1040" y="640" width="100" height="50" as="geometry"/>
                </mxCell>
                <mxCell id="Nnzz66zd7dhe3EpLPmQt-37" value="Time&lt;br&gt;" style="rounded=0;whiteSpace=wrap;html=1;" parent="1" vertex="1">
                    <mxGeometry x="910" y="640" width="100" height="140" as="geometry"/>
                </mxCell>
                <mxCell id="Nnzz66zd7dhe3EpLPmQt-38" value="add x3, x1, x2" style="text;html=1;strokeColor=none;fillColor=none;align=center;verticalAlign=middle;whiteSpace=wrap;rounded=0;" parent="1" vertex="1">
                    <mxGeometry x="-470" y="535" width="90" height="30" as="geometry"/>
                </mxCell>
                <mxCell id="Nnzz66zd7dhe3EpLPmQt-39" value="add x5, x3, x4" style="text;html=1;strokeColor=none;fillColor=none;align=center;verticalAlign=middle;whiteSpace=wrap;rounded=0;" parent="1" vertex="1">
                    <mxGeometry x="-470" y="440" width="90" height="30" as="geometry"/>
                </mxCell>
                <mxCell id="Nnzz66zd7dhe3EpLPmQt-40" value="" style="endArrow=classic;html=1;" parent="1" edge="1">
                    <mxGeometry width="50" height="50" relative="1" as="geometry">
                        <mxPoint x="-433" y="541" as="sourcePoint"/>
                        <mxPoint x="-413" y="461" as="targetPoint"/>
                    </mxGeometry>
                </mxCell>
                <mxCell id="Nnzz66zd7dhe3EpLPmQt-41" value="bypass" style="text;html=1;strokeColor=none;fillColor=none;align=center;verticalAlign=middle;whiteSpace=wrap;rounded=0;" parent="1" vertex="1">
                    <mxGeometry x="-420" y="490" width="60" height="30" as="geometry"/>
                </mxCell>
                <mxCell id="Nnzz66zd7dhe3EpLPmQt-42" value="beq x1, x2, 32" style="text;html=1;strokeColor=none;fillColor=none;align=center;verticalAlign=middle;whiteSpace=wrap;rounded=0;" parent="1" vertex="1">
                    <mxGeometry x="-630" y="537.5" width="90" height="30" as="geometry"/>
                </mxCell>
                <mxCell id="Nnzz66zd7dhe3EpLPmQt-43" value="readout" style="text;html=1;strokeColor=none;fillColor=none;align=center;verticalAlign=middle;whiteSpace=wrap;rounded=0;" parent="1" vertex="1">
                    <mxGeometry x="-560" y="350" width="90" height="30" as="geometry"/>
                </mxCell>
                <mxCell id="Nnzz66zd7dhe3EpLPmQt-44" value="" style="endArrow=classic;html=1;exitX=0.5;exitY=0;exitDx=0;exitDy=0;entryX=0.5;entryY=1;entryDx=0;entryDy=0;" parent="1" source="Nnzz66zd7dhe3EpLPmQt-42" target="Nnzz66zd7dhe3EpLPmQt-43" edge="1">
                    <mxGeometry width="50" height="50" relative="1" as="geometry">
                        <mxPoint x="-593" y="543.5" as="sourcePoint"/>
                        <mxPoint x="-590" y="390" as="targetPoint"/>
                    </mxGeometry>
                </mxCell>
                <mxCell id="Nnzz66zd7dhe3EpLPmQt-45" value="stall" style="text;html=1;strokeColor=none;fillColor=none;align=center;verticalAlign=middle;whiteSpace=wrap;rounded=0;" parent="1" vertex="1">
                    <mxGeometry x="-710" y="460" width="60" height="30" as="geometry"/>
                </mxCell>
                <mxCell id="Nnzz66zd7dhe3EpLPmQt-46" value="setTime" style="text;html=1;strokeColor=none;fillColor=none;align=center;verticalAlign=middle;whiteSpace=wrap;rounded=0;" parent="1" vertex="1">
                    <mxGeometry x="-700" y="350" width="90" height="30" as="geometry"/>
                </mxCell>
                <mxCell id="Nnzz66zd7dhe3EpLPmQt-48" value="" style="endArrow=classic;html=1;entryX=0.5;entryY=1;entryDx=0;entryDy=0;exitX=0.5;exitY=0;exitDx=0;exitDy=0;" parent="1" source="Nnzz66zd7dhe3EpLPmQt-42" target="Nnzz66zd7dhe3EpLPmQt-46" edge="1">
                    <mxGeometry width="50" height="50" relative="1" as="geometry">
                        <mxPoint x="-650.0000000000002" y="541.75" as="sourcePoint"/>
                        <mxPoint x="-647" y="388.25" as="targetPoint"/>
                    </mxGeometry>
                </mxCell>
                <mxCell id="34" value="" style="endArrow=none;dashed=1;html=1;" parent="1" edge="1">
                    <mxGeometry width="50" height="50" relative="1" as="geometry">
                        <mxPoint x="540" y="410" as="sourcePoint"/>
                        <mxPoint x="320" y="410" as="targetPoint"/>
                    </mxGeometry>
                </mxCell>
                <mxCell id="35" value="ex-2" style="text;html=1;strokeColor=none;fillColor=none;align=center;verticalAlign=middle;whiteSpace=wrap;rounded=0;" parent="1" vertex="1">
                    <mxGeometry x="230" y="350" width="60" height="30" as="geometry"/>
                </mxCell>
                <mxCell id="36" value="&lt;div&gt;RegReadPlugin&lt;/div&gt;writeback bypass" style="rounded=0;whiteSpace=wrap;html=1;" parent="1" vertex="1">
                    <mxGeometry x="340" y="430" width="100" height="50" as="geometry"/>
                </mxCell>
                <mxCell id="37" value="SrcPlugin&lt;div&gt;relaxedRs&lt;/div&gt;" style="rounded=0;whiteSpace=wrap;html=1;" parent="1" vertex="1">
                    <mxGeometry x="350" y="490" width="80" height="50" as="geometry"/>
                </mxCell>
                <mxCell id="SExxyXi1l0MOoqXrUEwF-40" value="SrcPlugin&lt;div&gt;addsub&lt;/div&gt;" style="rounded=0;whiteSpace=wrap;html=1;" parent="1" vertex="1">
                    <mxGeometry x="350" y="567.5" width="80" height="50" as="geometry"/>
                </mxCell>
                <mxCell id="hBl1V-TqpjXgIcdgd206-37" value="rfReadSync = true" style="text;html=1;strokeColor=none;fillColor=none;align=center;verticalAlign=middle;whiteSpace=wrap;rounded=0;" parent="1" vertex="1">
                    <mxGeometry x="50" y="350" width="100" height="30" as="geometry"/>
                </mxCell>
                <mxCell id="hBl1V-TqpjXgIcdgd206-38" value="" style="endArrow=none;dashed=1;html=1;" parent="1" edge="1">
                    <mxGeometry width="50" height="50" relative="1" as="geometry">
                        <mxPoint x="575" y="1290" as="sourcePoint"/>
                        <mxPoint x="355" y="1290" as="targetPoint"/>
                    </mxGeometry>
                </mxCell>
                <mxCell id="hBl1V-TqpjXgIcdgd206-39" value="fetch" style="text;html=1;strokeColor=none;fillColor=none;align=center;verticalAlign=middle;whiteSpace=wrap;rounded=0;" parent="1" vertex="1">
                    <mxGeometry x="265" y="1170" width="60" height="30" as="geometry"/>
                </mxCell>
                <mxCell id="hBl1V-TqpjXgIcdgd206-40" value="" style="endArrow=none;dashed=1;html=1;" parent="1" edge="1">
                    <mxGeometry width="50" height="50" relative="1" as="geometry">
                        <mxPoint x="1160" y="1510" as="sourcePoint"/>
                        <mxPoint x="350" y="1510" as="targetPoint"/>
                    </mxGeometry>
                </mxCell>
                <mxCell id="hBl1V-TqpjXgIcdgd206-41" value="ex-1" style="text;html=1;strokeColor=none;fillColor=none;align=center;verticalAlign=middle;whiteSpace=wrap;rounded=0;" parent="1" vertex="1">
                    <mxGeometry x="260" y="1440" width="60" height="30" as="geometry"/>
                </mxCell>
                <mxCell id="hBl1V-TqpjXgIcdgd206-42" value="" style="endArrow=none;dashed=1;html=1;" parent="1" edge="1">
                    <mxGeometry width="50" height="50" relative="1" as="geometry">
                        <mxPoint x="1160" y="1670" as="sourcePoint"/>
                        <mxPoint x="350" y="1670" as="targetPoint"/>
                    </mxGeometry>
                </mxCell>
                <mxCell id="hBl1V-TqpjXgIcdgd206-43" value="ex0" style="text;html=1;strokeColor=none;fillColor=none;align=center;verticalAlign=middle;whiteSpace=wrap;rounded=0;" parent="1" vertex="1">
                    <mxGeometry x="260" y="1610" width="60" height="30" as="geometry"/>
                </mxCell>
                <mxCell id="hBl1V-TqpjXgIcdgd206-44" value="RF Read" style="rounded=0;whiteSpace=wrap;html=1;" parent="1" vertex="1">
                    <mxGeometry x="380" y="1310" width="80" height="50" as="geometry"/>
                </mxCell>
                <mxCell id="hBl1V-TqpjXgIcdgd206-45" value="" style="endArrow=none;dashed=1;html=1;" parent="1" edge="1">
                    <mxGeometry width="50" height="50" relative="1" as="geometry">
                        <mxPoint x="570" y="1760" as="sourcePoint"/>
                        <mxPoint x="350" y="1760" as="targetPoint"/>
                    </mxGeometry>
                </mxCell>
                <mxCell id="hBl1V-TqpjXgIcdgd206-46" value="ex1" style="text;html=1;strokeColor=none;fillColor=none;align=center;verticalAlign=middle;whiteSpace=wrap;rounded=0;" parent="1" vertex="1">
                    <mxGeometry x="260" y="1705" width="60" height="30" as="geometry"/>
                </mxCell>
                <mxCell id="hBl1V-TqpjXgIcdgd206-47" value="ALU" style="rounded=0;whiteSpace=wrap;html=1;" parent="1" vertex="1">
                    <mxGeometry x="380" y="1600" width="80" height="50" as="geometry"/>
                </mxCell>
                <mxCell id="hBl1V-TqpjXgIcdgd206-48" value="WriteBack" style="rounded=0;whiteSpace=wrap;html=1;" parent="1" vertex="1">
                    <mxGeometry x="380" y="1770" width="80" height="50" as="geometry"/>
                </mxCell>
                <mxCell id="hBl1V-TqpjXgIcdgd206-49" value="&lt;div&gt;LsuCachelessPlugin&lt;/div&gt;Memory&lt;div&gt;Load&lt;/div&gt;&lt;div&gt;Store&lt;/div&gt;" style="rounded=0;whiteSpace=wrap;html=1;" parent="1" vertex="1">
                    <mxGeometry x="520" y="1600" width="120" height="150" as="geometry"/>
                </mxCell>
                <mxCell id="hBl1V-TqpjXgIcdgd206-50" value="Dispatch&lt;br&gt;Hazard detection" style="rounded=0;whiteSpace=wrap;html=1;" parent="1" vertex="1">
                    <mxGeometry x="500" y="1375" width="100" height="40" as="geometry"/>
                </mxCell>
                <mxCell id="hBl1V-TqpjXgIcdgd206-51" value="ex2" style="text;html=1;strokeColor=none;fillColor=none;align=center;verticalAlign=middle;whiteSpace=wrap;rounded=0;" parent="1" vertex="1">
                    <mxGeometry x="260" y="1780" width="60" height="30" as="geometry"/>
                </mxCell>
                <mxCell id="hBl1V-TqpjXgIcdgd206-52" value="Pulse" style="rounded=0;whiteSpace=wrap;html=1;" parent="1" vertex="1">
                    <mxGeometry x="810" y="1600" width="100" height="50" as="geometry"/>
                </mxCell>
                <mxCell id="hBl1V-TqpjXgIcdgd206-53" value="Branch" style="rounded=0;whiteSpace=wrap;html=1;" parent="1" vertex="1">
                    <mxGeometry x="700" y="1600" width="80" height="140" as="geometry"/>
                </mxCell>
                <mxCell id="hBl1V-TqpjXgIcdgd206-54" value="" style="endArrow=none;dashed=1;html=1;" parent="1" edge="1">
                    <mxGeometry width="50" height="50" relative="1" as="geometry">
                        <mxPoint x="575" y="1210" as="sourcePoint"/>
                        <mxPoint x="355" y="1210" as="targetPoint"/>
                    </mxGeometry>
                </mxCell>
                <mxCell id="hBl1V-TqpjXgIcdgd206-55" value="decode" style="text;html=1;strokeColor=none;fillColor=none;align=center;verticalAlign=middle;whiteSpace=wrap;rounded=0;" parent="1" vertex="1">
                    <mxGeometry x="265" y="1240" width="60" height="30" as="geometry"/>
                </mxCell>
                <mxCell id="hBl1V-TqpjXgIcdgd206-56" value="Readout" style="rounded=0;whiteSpace=wrap;html=1;" parent="1" vertex="1">
                    <mxGeometry x="1070" y="1600" width="100" height="50" as="geometry"/>
                </mxCell>
                <mxCell id="hBl1V-TqpjXgIcdgd206-57" value="Time&lt;br&gt;" style="rounded=0;whiteSpace=wrap;html=1;" parent="1" vertex="1">
                    <mxGeometry x="940" y="1600" width="100" height="140" as="geometry"/>
                </mxCell>
                <mxCell id="hBl1V-TqpjXgIcdgd206-60" value="&lt;div&gt;RegReadPlugin&lt;/div&gt;writeback bypass" style="rounded=0;whiteSpace=wrap;html=1;" parent="1" vertex="1">
                    <mxGeometry x="370" y="1370" width="100" height="50" as="geometry"/>
                </mxCell>
                <mxCell id="hBl1V-TqpjXgIcdgd206-61" value="SrcPlugin&lt;div&gt;relaxedRs&lt;/div&gt;" style="rounded=0;whiteSpace=wrap;html=1;" parent="1" vertex="1">
                    <mxGeometry x="380" y="1430" width="80" height="50" as="geometry"/>
                </mxCell>
                <mxCell id="hBl1V-TqpjXgIcdgd206-62" value="SrcPlugin&lt;div&gt;addsub&lt;/div&gt;" style="rounded=0;whiteSpace=wrap;html=1;" parent="1" vertex="1">
                    <mxGeometry x="380" y="1527.5" width="80" height="50" as="geometry"/>
                </mxCell>
                <mxCell id="hBl1V-TqpjXgIcdgd206-63" value="rfReadSync = false" style="text;html=1;strokeColor=none;fillColor=none;align=center;verticalAlign=middle;whiteSpace=wrap;rounded=0;" parent="1" vertex="1">
                    <mxGeometry x="80" y="1310" width="110" height="30" as="geometry"/>
                </mxCell>
            </root>
        </mxGraphModel>
    </diagram>
    <diagram name="Copy of Page-1" id="UYCvycLY2p74oL7-VaF-">
        <mxGraphModel dx="2003" dy="556" grid="1" gridSize="10" guides="1" tooltips="1" connect="1" arrows="1" fold="1" page="1" pageScale="1" pageWidth="850" pageHeight="1100" math="0" shadow="0">
            <root>
                <mxCell id="gxQDdSemSxHT6XxgL2sQ-0"/>
                <mxCell id="gxQDdSemSxHT6XxgL2sQ-1" parent="gxQDdSemSxHT6XxgL2sQ-0"/>
                <mxCell id="gxQDdSemSxHT6XxgL2sQ-2" value="" style="endArrow=none;dashed=1;html=1;" parent="gxQDdSemSxHT6XxgL2sQ-1" edge="1">
                    <mxGeometry width="50" height="50" relative="1" as="geometry">
                        <mxPoint x="660" y="150" as="sourcePoint"/>
                        <mxPoint x="440" y="150" as="targetPoint"/>
                    </mxGeometry>
                </mxCell>
                <mxCell id="gxQDdSemSxHT6XxgL2sQ-3" value="fetch" style="text;html=1;strokeColor=none;fillColor=none;align=center;verticalAlign=middle;whiteSpace=wrap;rounded=0;" parent="gxQDdSemSxHT6XxgL2sQ-1" vertex="1">
                    <mxGeometry x="350" y="130" width="60" height="30" as="geometry"/>
                </mxCell>
                <mxCell id="gxQDdSemSxHT6XxgL2sQ-4" value="" style="endArrow=none;dashed=1;html=1;" parent="gxQDdSemSxHT6XxgL2sQ-1" edge="1">
                    <mxGeometry width="50" height="50" relative="1" as="geometry">
                        <mxPoint x="660" y="290" as="sourcePoint"/>
                        <mxPoint x="440" y="290" as="targetPoint"/>
                    </mxGeometry>
                </mxCell>
                <mxCell id="gxQDdSemSxHT6XxgL2sQ-5" value="decode&lt;br&gt;ex-1" style="text;html=1;strokeColor=none;fillColor=none;align=center;verticalAlign=middle;whiteSpace=wrap;rounded=0;" parent="gxQDdSemSxHT6XxgL2sQ-1" vertex="1">
                    <mxGeometry x="350" y="230" width="60" height="30" as="geometry"/>
                </mxCell>
                <mxCell id="gxQDdSemSxHT6XxgL2sQ-6" value="" style="endArrow=none;dashed=1;html=1;" parent="gxQDdSemSxHT6XxgL2sQ-1" edge="1">
                    <mxGeometry width="50" height="50" relative="1" as="geometry">
                        <mxPoint x="660" y="419" as="sourcePoint"/>
                        <mxPoint x="440" y="419" as="targetPoint"/>
                    </mxGeometry>
                </mxCell>
                <mxCell id="gxQDdSemSxHT6XxgL2sQ-7" value="ex0" style="text;html=1;strokeColor=none;fillColor=none;align=center;verticalAlign=middle;whiteSpace=wrap;rounded=0;" parent="gxQDdSemSxHT6XxgL2sQ-1" vertex="1">
                    <mxGeometry x="350" y="310" width="60" height="30" as="geometry"/>
                </mxCell>
                <mxCell id="gxQDdSemSxHT6XxgL2sQ-8" value="RF Read" style="rounded=0;whiteSpace=wrap;html=1;" parent="gxQDdSemSxHT6XxgL2sQ-1" vertex="1">
                    <mxGeometry x="500" y="230" width="80" height="50" as="geometry"/>
                </mxCell>
                <mxCell id="gxQDdSemSxHT6XxgL2sQ-9" value="" style="endArrow=none;dashed=1;html=1;" parent="gxQDdSemSxHT6XxgL2sQ-1" edge="1">
                    <mxGeometry width="50" height="50" relative="1" as="geometry">
                        <mxPoint x="660" y="510" as="sourcePoint"/>
                        <mxPoint x="440" y="510" as="targetPoint"/>
                    </mxGeometry>
                </mxCell>
                <mxCell id="gxQDdSemSxHT6XxgL2sQ-10" value="ex1" style="text;html=1;strokeColor=none;fillColor=none;align=center;verticalAlign=middle;whiteSpace=wrap;rounded=0;" parent="gxQDdSemSxHT6XxgL2sQ-1" vertex="1">
                    <mxGeometry x="350" y="440" width="60" height="30" as="geometry"/>
                </mxCell>
                <mxCell id="gxQDdSemSxHT6XxgL2sQ-11" value="ALU" style="rounded=0;whiteSpace=wrap;html=1;" parent="gxQDdSemSxHT6XxgL2sQ-1" vertex="1">
                    <mxGeometry x="480" y="360" width="80" height="50" as="geometry"/>
                </mxCell>
                <mxCell id="gxQDdSemSxHT6XxgL2sQ-12" value="SrcPlugin" style="rounded=0;whiteSpace=wrap;html=1;" parent="gxQDdSemSxHT6XxgL2sQ-1" vertex="1">
                    <mxGeometry x="480" y="300" width="80" height="50" as="geometry"/>
                </mxCell>
                <mxCell id="gxQDdSemSxHT6XxgL2sQ-13" value="c up" style="rounded=0;whiteSpace=wrap;html=1;" parent="gxQDdSemSxHT6XxgL2sQ-1" vertex="1">
                    <mxGeometry x="870" y="10" width="60" height="60" as="geometry"/>
                </mxCell>
                <mxCell id="gxQDdSemSxHT6XxgL2sQ-14" value="c down" style="rounded=0;whiteSpace=wrap;html=1;" parent="gxQDdSemSxHT6XxgL2sQ-1" vertex="1">
                    <mxGeometry x="960" y="10" width="60" height="60" as="geometry"/>
                </mxCell>
                <mxCell id="gxQDdSemSxHT6XxgL2sQ-15" value="c up&lt;br&gt;reg" style="rounded=0;whiteSpace=wrap;html=1;" parent="gxQDdSemSxHT6XxgL2sQ-1" vertex="1">
                    <mxGeometry x="1085" y="10" width="60" height="60" as="geometry"/>
                </mxCell>
                <mxCell id="gxQDdSemSxHT6XxgL2sQ-16" value="c down" style="rounded=0;whiteSpace=wrap;html=1;" parent="gxQDdSemSxHT6XxgL2sQ-1" vertex="1">
                    <mxGeometry x="1175" y="10" width="60" height="60" as="geometry"/>
                </mxCell>
                <mxCell id="gxQDdSemSxHT6XxgL2sQ-17" value="stage&lt;br&gt;link" style="text;html=1;strokeColor=none;fillColor=none;align=center;verticalAlign=middle;whiteSpace=wrap;rounded=0;" parent="gxQDdSemSxHT6XxgL2sQ-1" vertex="1">
                    <mxGeometry x="1020" y="25" width="60" height="30" as="geometry"/>
                </mxCell>
                <mxCell id="gxQDdSemSxHT6XxgL2sQ-18" value="WB" style="rounded=0;whiteSpace=wrap;html=1;" parent="gxQDdSemSxHT6XxgL2sQ-1" vertex="1">
                    <mxGeometry x="500" y="530" width="80" height="50" as="geometry"/>
                </mxCell>
                <mxCell id="gxQDdSemSxHT6XxgL2sQ-19" value="Memory" style="rounded=0;whiteSpace=wrap;html=1;" parent="gxQDdSemSxHT6XxgL2sQ-1" vertex="1">
                    <mxGeometry x="590" y="330" width="80" height="220" as="geometry"/>
                </mxCell>
                <mxCell id="gxQDdSemSxHT6XxgL2sQ-20" value="Dispatch&lt;br&gt;Hazard detection" style="rounded=0;whiteSpace=wrap;html=1;" parent="gxQDdSemSxHT6XxgL2sQ-1" vertex="1">
                    <mxGeometry x="490" y="180" width="100" height="40" as="geometry"/>
                </mxCell>
                <mxCell id="gxQDdSemSxHT6XxgL2sQ-21" value="ex2" style="text;html=1;strokeColor=none;fillColor=none;align=center;verticalAlign=middle;whiteSpace=wrap;rounded=0;" parent="gxQDdSemSxHT6XxgL2sQ-1" vertex="1">
                    <mxGeometry x="350" y="530" width="60" height="30" as="geometry"/>
                </mxCell>
                <mxCell id="gxQDdSemSxHT6XxgL2sQ-22" value="" style="endArrow=none;dashed=1;html=1;" parent="gxQDdSemSxHT6XxgL2sQ-1" edge="1">
                    <mxGeometry width="50" height="50" relative="1" as="geometry">
                        <mxPoint x="660" y="590" as="sourcePoint"/>
                        <mxPoint x="440" y="590" as="targetPoint"/>
                    </mxGeometry>
                </mxCell>
                <mxCell id="gxQDdSemSxHT6XxgL2sQ-23" value="ex3" style="text;html=1;strokeColor=none;fillColor=none;align=center;verticalAlign=middle;whiteSpace=wrap;rounded=0;" parent="gxQDdSemSxHT6XxgL2sQ-1" vertex="1">
                    <mxGeometry x="350" y="610" width="60" height="30" as="geometry"/>
                </mxCell>
                <mxCell id="gxQDdSemSxHT6XxgL2sQ-27" value="Branch" style="rounded=0;whiteSpace=wrap;html=1;" parent="gxQDdSemSxHT6XxgL2sQ-1" vertex="1">
                    <mxGeometry x="690" y="300" width="80" height="200" as="geometry"/>
                </mxCell>
                <mxCell id="tpXsupP0RlZtD7fNnHrJ-5" value="" style="edgeStyle=none;html=1;" parent="gxQDdSemSxHT6XxgL2sQ-1" source="tpXsupP0RlZtD7fNnHrJ-1" target="tpXsupP0RlZtD7fNnHrJ-2" edge="1">
                    <mxGeometry relative="1" as="geometry"/>
                </mxCell>
                <mxCell id="tpXsupP0RlZtD7fNnHrJ-1" value="Instruction Memory" style="rounded=0;whiteSpace=wrap;html=1;" parent="gxQDdSemSxHT6XxgL2sQ-1" vertex="1">
                    <mxGeometry x="190" y="20" width="100" height="40" as="geometry"/>
                </mxCell>
                <mxCell id="tpXsupP0RlZtD7fNnHrJ-9" value="" style="edgeStyle=none;html=1;" parent="gxQDdSemSxHT6XxgL2sQ-1" source="tpXsupP0RlZtD7fNnHrJ-2" target="tpXsupP0RlZtD7fNnHrJ-8" edge="1">
                    <mxGeometry relative="1" as="geometry"/>
                </mxCell>
                <mxCell id="tpXsupP0RlZtD7fNnHrJ-2" value="add x7, x3, x5" style="rounded=0;whiteSpace=wrap;html=1;" parent="gxQDdSemSxHT6XxgL2sQ-1" vertex="1">
                    <mxGeometry x="190" y="80" width="100" height="40" as="geometry"/>
                </mxCell>
                <mxCell id="tpXsupP0RlZtD7fNnHrJ-4" value="" style="edgeStyle=none;html=1;" parent="gxQDdSemSxHT6XxgL2sQ-1" source="tpXsupP0RlZtD7fNnHrJ-3" target="tpXsupP0RlZtD7fNnHrJ-1" edge="1">
                    <mxGeometry relative="1" as="geometry"/>
                </mxCell>
                <mxCell id="tpXsupP0RlZtD7fNnHrJ-3" value="Program&lt;br&gt;Counter" style="rounded=0;whiteSpace=wrap;html=1;" parent="gxQDdSemSxHT6XxgL2sQ-1" vertex="1">
                    <mxGeometry x="460" y="20" width="100" height="40" as="geometry"/>
                </mxCell>
                <mxCell id="tpXsupP0RlZtD7fNnHrJ-24" value="" style="edgeStyle=none;html=1;" parent="gxQDdSemSxHT6XxgL2sQ-1" source="tpXsupP0RlZtD7fNnHrJ-6" target="tpXsupP0RlZtD7fNnHrJ-22" edge="1">
                    <mxGeometry relative="1" as="geometry"/>
                </mxCell>
                <mxCell id="tpXsupP0RlZtD7fNnHrJ-6" value="RegFile" style="rounded=0;whiteSpace=wrap;html=1;" parent="gxQDdSemSxHT6XxgL2sQ-1" vertex="1">
                    <mxGeometry x="130" y="240" width="100" height="40" as="geometry"/>
                </mxCell>
                <mxCell id="tpXsupP0RlZtD7fNnHrJ-7" value="x7 = x3 + x5" style="text;html=1;strokeColor=none;fillColor=none;align=center;verticalAlign=middle;whiteSpace=wrap;rounded=0;" parent="gxQDdSemSxHT6XxgL2sQ-1" vertex="1">
                    <mxGeometry x="80" y="85" width="70" height="30" as="geometry"/>
                </mxCell>
                <mxCell id="tpXsupP0RlZtD7fNnHrJ-11" value="" style="edgeStyle=none;html=1;" parent="gxQDdSemSxHT6XxgL2sQ-1" source="tpXsupP0RlZtD7fNnHrJ-8" target="tpXsupP0RlZtD7fNnHrJ-6" edge="1">
                    <mxGeometry relative="1" as="geometry"/>
                </mxCell>
                <mxCell id="tpXsupP0RlZtD7fNnHrJ-17" value="" style="edgeStyle=none;html=1;" parent="gxQDdSemSxHT6XxgL2sQ-1" source="tpXsupP0RlZtD7fNnHrJ-8" target="tpXsupP0RlZtD7fNnHrJ-16" edge="1">
                    <mxGeometry relative="1" as="geometry"/>
                </mxCell>
                <mxCell id="tpXsupP0RlZtD7fNnHrJ-21" value="" style="edgeStyle=none;html=1;" parent="gxQDdSemSxHT6XxgL2sQ-1" source="tpXsupP0RlZtD7fNnHrJ-8" target="tpXsupP0RlZtD7fNnHrJ-18" edge="1">
                    <mxGeometry relative="1" as="geometry"/>
                </mxCell>
                <mxCell id="tpXsupP0RlZtD7fNnHrJ-8" value="Decoding&lt;br&gt;Logic" style="rounded=0;whiteSpace=wrap;html=1;" parent="gxQDdSemSxHT6XxgL2sQ-1" vertex="1">
                    <mxGeometry x="190" y="180" width="100" height="40" as="geometry"/>
                </mxCell>
                <mxCell id="tpXsupP0RlZtD7fNnHrJ-10" value="address&lt;br&gt;of&lt;br&gt;next inst" style="text;html=1;strokeColor=none;fillColor=none;align=center;verticalAlign=middle;whiteSpace=wrap;rounded=0;" parent="gxQDdSemSxHT6XxgL2sQ-1" vertex="1">
                    <mxGeometry x="340" y="50" width="60" height="30" as="geometry"/>
                </mxCell>
                <mxCell id="tpXsupP0RlZtD7fNnHrJ-12" value="RS1 PHYS = 3&lt;br&gt;RS2 PHYS = 5&lt;br&gt;RD PHYS = 7" style="text;html=1;strokeColor=none;fillColor=none;align=center;verticalAlign=middle;whiteSpace=wrap;rounded=0;" parent="gxQDdSemSxHT6XxgL2sQ-1" vertex="1">
                    <mxGeometry x="230" y="230" width="90" height="30" as="geometry"/>
                </mxCell>
                <mxCell id="tpXsupP0RlZtD7fNnHrJ-31" style="edgeStyle=none;html=1;exitX=0.5;exitY=1;exitDx=0;exitDy=0;entryX=0.25;entryY=0;entryDx=0;entryDy=0;" parent="gxQDdSemSxHT6XxgL2sQ-1" source="tpXsupP0RlZtD7fNnHrJ-16" target="tpXsupP0RlZtD7fNnHrJ-28" edge="1">
                    <mxGeometry relative="1" as="geometry"/>
                </mxCell>
                <mxCell id="tpXsupP0RlZtD7fNnHrJ-16" value="writeback.SEL = true" style="rounded=0;whiteSpace=wrap;html=1;" parent="gxQDdSemSxHT6XxgL2sQ-1" vertex="1">
                    <mxGeometry x="-80" y="325" width="130" height="40" as="geometry"/>
                </mxCell>
                <mxCell id="tpXsupP0RlZtD7fNnHrJ-29" style="edgeStyle=none;html=1;exitX=0.5;exitY=1;exitDx=0;exitDy=0;entryX=0.25;entryY=0;entryDx=0;entryDy=0;" parent="gxQDdSemSxHT6XxgL2sQ-1" source="tpXsupP0RlZtD7fNnHrJ-18" target="tpXsupP0RlZtD7fNnHrJ-26" edge="1">
                    <mxGeometry relative="1" as="geometry"/>
                </mxCell>
                <mxCell id="tpXsupP0RlZtD7fNnHrJ-18" value="IntAlu.ALU_CTRL=ADD_SUB" style="rounded=0;whiteSpace=wrap;html=1;" parent="gxQDdSemSxHT6XxgL2sQ-1" vertex="1">
                    <mxGeometry x="-90" y="210" width="210" height="40" as="geometry"/>
                </mxCell>
                <mxCell id="tpXsupP0RlZtD7fNnHrJ-27" value="" style="edgeStyle=none;html=1;" parent="gxQDdSemSxHT6XxgL2sQ-1" source="tpXsupP0RlZtD7fNnHrJ-22" target="tpXsupP0RlZtD7fNnHrJ-26" edge="1">
                    <mxGeometry relative="1" as="geometry"/>
                </mxCell>
                <mxCell id="tpXsupP0RlZtD7fNnHrJ-22" value="srcp.ADD_SUB = x3+x5" style="rounded=0;whiteSpace=wrap;html=1;" parent="gxQDdSemSxHT6XxgL2sQ-1" vertex="1">
                    <mxGeometry x="112.5" y="305" width="135" height="40" as="geometry"/>
                </mxCell>
                <mxCell id="tpXsupP0RlZtD7fNnHrJ-25" value="x3, x5" style="text;html=1;strokeColor=none;fillColor=none;align=center;verticalAlign=middle;whiteSpace=wrap;rounded=0;" parent="gxQDdSemSxHT6XxgL2sQ-1" vertex="1">
                    <mxGeometry x="157.5" y="280" width="90" height="30" as="geometry"/>
                </mxCell>
                <mxCell id="tpXsupP0RlZtD7fNnHrJ-30" value="" style="edgeStyle=none;html=1;" parent="gxQDdSemSxHT6XxgL2sQ-1" source="tpXsupP0RlZtD7fNnHrJ-26" target="tpXsupP0RlZtD7fNnHrJ-28" edge="1">
                    <mxGeometry relative="1" as="geometry"/>
                </mxCell>
                <mxCell id="tpXsupP0RlZtD7fNnHrJ-26" value="ALU_RESULT=src.ADD_SUB" style="rounded=0;whiteSpace=wrap;html=1;" parent="gxQDdSemSxHT6XxgL2sQ-1" vertex="1">
                    <mxGeometry x="81.25" y="365" width="197.5" height="40" as="geometry"/>
                </mxCell>
                <mxCell id="tpXsupP0RlZtD7fNnHrJ-33" value="" style="edgeStyle=none;html=1;" parent="gxQDdSemSxHT6XxgL2sQ-1" source="tpXsupP0RlZtD7fNnHrJ-28" target="tpXsupP0RlZtD7fNnHrJ-32" edge="1">
                    <mxGeometry relative="1" as="geometry"/>
                </mxCell>
                <mxCell id="tpXsupP0RlZtD7fNnHrJ-28" value="ALU_RESULT=src.ADD_SUB" style="rounded=0;whiteSpace=wrap;html=1;" parent="gxQDdSemSxHT6XxgL2sQ-1" vertex="1">
                    <mxGeometry x="81.25" y="525" width="197.5" height="40" as="geometry"/>
                </mxCell>
                <mxCell id="tpXsupP0RlZtD7fNnHrJ-32" value="RegFile" style="rounded=0;whiteSpace=wrap;html=1;" parent="gxQDdSemSxHT6XxgL2sQ-1" vertex="1">
                    <mxGeometry x="130" y="605" width="100" height="40" as="geometry"/>
                </mxCell>
                <mxCell id="tpXsupP0RlZtD7fNnHrJ-34" value="data = ALU_RESULT" style="text;html=1;strokeColor=none;fillColor=none;align=center;verticalAlign=middle;whiteSpace=wrap;rounded=0;" parent="gxQDdSemSxHT6XxgL2sQ-1" vertex="1">
                    <mxGeometry x="195" y="575" width="90" height="30" as="geometry"/>
                </mxCell>
                <mxCell id="tpXsupP0RlZtD7fNnHrJ-36" value="write address = RD PHYS = 7" style="text;html=1;strokeColor=none;fillColor=none;align=center;verticalAlign=middle;whiteSpace=wrap;rounded=0;" parent="gxQDdSemSxHT6XxgL2sQ-1" vertex="1">
                    <mxGeometry x="60" y="575" width="90" height="30" as="geometry"/>
                </mxCell>
            </root>
        </mxGraphModel>
    </diagram>
    <diagram id="aan1Ka33LIopHKQIvmTY" name="Page-3">
        <mxGraphModel dx="656" dy="406" grid="1" gridSize="10" guides="1" tooltips="1" connect="1" arrows="1" fold="1" page="1" pageScale="1" pageWidth="850" pageHeight="1100" math="0" shadow="0">
            <root>
                <mxCell id="0"/>
                <mxCell id="1" parent="0"/>
                <mxCell id="jaLmb09Mg1b8fyUi5N4d-4" style="edgeStyle=none;html=1;exitX=1;exitY=0.5;exitDx=0;exitDy=0;entryX=0;entryY=0.5;entryDx=0;entryDy=0;" edge="1" parent="1" source="jaLmb09Mg1b8fyUi5N4d-1" target="jaLmb09Mg1b8fyUi5N4d-3">
                    <mxGeometry relative="1" as="geometry"/>
                </mxCell>
                <mxCell id="jaLmb09Mg1b8fyUi5N4d-1" value="pulse0&lt;div&gt;amp, freq, phase&lt;/div&gt;" style="rounded=0;whiteSpace=wrap;html=1;" vertex="1" parent="1">
                    <mxGeometry x="280" y="190" width="120" height="60" as="geometry"/>
                </mxCell>
                <mxCell id="jaLmb09Mg1b8fyUi5N4d-5" style="edgeStyle=none;html=1;exitX=1;exitY=0.5;exitDx=0;exitDy=0;entryX=0;entryY=0.5;entryDx=0;entryDy=0;" edge="1" parent="1" source="jaLmb09Mg1b8fyUi5N4d-2" target="jaLmb09Mg1b8fyUi5N4d-3">
                    <mxGeometry relative="1" as="geometry"/>
                </mxCell>
                <mxCell id="jaLmb09Mg1b8fyUi5N4d-2" value="pulse1&lt;div&gt;amp, freq, phase&lt;/div&gt;" style="rounded=0;whiteSpace=wrap;html=1;" vertex="1" parent="1">
                    <mxGeometry x="280" y="300" width="120" height="60" as="geometry"/>
                </mxCell>
                <mxCell id="jaLmb09Mg1b8fyUi5N4d-12" style="edgeStyle=none;html=1;exitX=1;exitY=0.5;exitDx=0;exitDy=0;" edge="1" parent="1" source="jaLmb09Mg1b8fyUi5N4d-3">
                    <mxGeometry relative="1" as="geometry">
                        <mxPoint x="630" y="270" as="targetPoint"/>
                    </mxGeometry>
                </mxCell>
                <mxCell id="jaLmb09Mg1b8fyUi5N4d-3" value="pulse_selector" style="rounded=0;whiteSpace=wrap;html=1;" vertex="1" parent="1">
                    <mxGeometry x="440" y="240" width="120" height="60" as="geometry"/>
                </mxCell>
                <mxCell id="jaLmb09Mg1b8fyUi5N4d-10" value="" style="endArrow=classic;html=1;entryX=0.5;entryY=0;entryDx=0;entryDy=0;" edge="1" parent="1" target="jaLmb09Mg1b8fyUi5N4d-3">
                    <mxGeometry width="50" height="50" relative="1" as="geometry">
                        <mxPoint x="500" y="140" as="sourcePoint"/>
                        <mxPoint x="370" y="190" as="targetPoint"/>
                    </mxGeometry>
                </mxCell>
                <mxCell id="jaLmb09Mg1b8fyUi5N4d-11" value="pulse_selection_addr" style="rounded=0;whiteSpace=wrap;html=1;" vertex="1" parent="1">
                    <mxGeometry x="440" y="80" width="120" height="60" as="geometry"/>
                </mxCell>
            </root>
        </mxGraphModel>
    </diagram>
</mxfile>